<svg id="Layer_1" enable-background="new 0 0 512 512" height="512" viewBox="0 0 512 512" width="512" xmlns="http://www.w3.org/2000/svg"><path d="m476.877 188.692c-.814-3.93-3.169-7.371-6.539-9.551l-273.133-176.733c-6.888-4.457-16.078-2.553-20.63 4.273l-139.245 208.866c-3.509 5.264-3.338 12.165.428 17.248l102.894 138.907-30.415 121.659c-1.12 4.481-.113 9.228 2.729 12.869 2.843 3.641 7.204 5.769 11.823 5.769h257.067c8.284 0 15-6.716 15-15v-88.379l1.419-.946c29.292-19.528 46.781-52.203 46.781-87.407v-75.792l29.614-44.42c2.226-3.34 3.021-7.432 2.207-11.363zm-101.082-34.992-55.639 83.458-44.485-19.771 59.836-89.755zm-65.477-42.368-29.999 44.998-49.275-24.637 33.374-50.06zm-116.989-75.699 45.9 29.7-35.226 52.838-49.274-24.637zm221.727 284.634c0 25.15-12.494 48.494-33.421 62.446-4.846 3.23-8.12 5.42-8.12 5.42-4.161 2.784-6.659 7.46-6.659 12.467v81.4h-222.856l27.474-109.895c1.088-4.352.171-8.962-2.499-12.566l-100.833-136.125 69.816-104.724 125.591 62.795-18.255 27.383h-88.373c-8.284 0-15 6.716-15 15s6.716 15 15 15h54.997l60.12 120.241c3.705 7.41 12.715 10.414 20.125 6.708 7.41-3.705 10.413-12.715 6.708-20.124l-53.411-106.825h4.68l141.69 62.973c6.678 2.969 14.521.692 18.573-5.386l4.653-6.98zm-22.599-50.977-44.485-19.771 53.014-79.521 40.288 26.069z"/></svg>