<?xml version="1.0"?><svg fill="#000000" xmlns="http://www.w3.org/2000/svg" viewBox="0 0 50 50" width="100px" height="100px">    <path d="M39.51,15.08c-0.2-0.64-0.45-1.26-0.76-1.86v-0.01l7.99-6.76l-9.77,4.19c-1.83-2.08-4.43-3.69-7.53-4.56L28.82,3h-7.64 l-0.62,3.08c-3.1,0.87-5.7,2.48-7.53,4.56L3.26,6.45l7.99,6.77c-0.13,0.26-0.26,0.52-0.36,0.79C9.86,14.08,6,15.44,6,31 c0,0.22,0.06,5.53,5.38,9.78l0.17,0.14L17,42.28v-0.66l3.99,1.99H21L22.32,47h5.36L29,43.61h0.01L33,41.62v0.66l5.45-1.36l0.17-0.14 C43.94,36.53,44,31.22,44,31C44,17.85,40.89,15.48,39.51,15.08z M37.17,14.55C37.71,15.73,38,17,38,18.32v2.35l-2.3,3.06l-5.9-2.94 L37.17,14.55z M21.93,22.15L25,24.2l3.07-2.05l3.16,1.58c-4.09,0.96-8.37,0.96-12.46,0L21.93,22.15z M23.11,20.54L23.82,17h2.36 l0.71,3.54L25,21.8L23.11,20.54z M28.65,19.14l-0.51-2.54l7.12-3.05L28.65,19.14z M22.82,5h4.36l0.73,3.67L26.59,10h-3.18 l-1.32-1.33L22.82,5z M20.11,8.33l-0.2,1L22.59,12h4.82l2.68-2.67l-0.2-1c2.04,0.71,3.78,1.8,5.12,3.15L26.8,15h-3.6l-8.21-3.52 C16.33,10.13,18.07,9.04,20.11,8.33z M21.86,16.6l-0.51,2.54l-6.61-5.59L21.86,16.6z M12,18.32c0-1.32,0.29-2.59,0.83-3.77 l7.37,6.24l-5.9,2.94L12,20.67V18.32z M15,39.72l-2-0.5V34h-2v3.69C8.07,34.46,8,31.16,8,31c0-8.5,1.15-12.22,2.06-13.82 C10.02,17.56,10,17.94,10,18.32v3.01l3,4.01v4.96l2,3V39.72z M15,25.62l1.09-0.54c0,0,0,0,0.01,0c2.88,0.91,5.89,1.37,8.9,1.37 s6.02-0.46,8.9-1.37c0.01,0,0.01,0,0.01,0L35,25.62v3.76l-4.96,2.48L25,28.83l-5.04,3.03L15,29.38V25.62z M17,39.39V32.7l-0.08-0.12 l2.01,1c-0.12,1.52-0.13,5.06,1.98,7.76L17,39.39z M26.32,45h-2.64l-0.57-1.48L24.57,41h0.86l1.46,2.52L26.32,45z M27.34,40.31 L26.57,39h-3.14l-0.76,1.31c-1.92-2.25-1.83-5.53-1.73-6.71L25,31.17l4.06,2.43C29.17,34.78,29.26,38.06,27.34,40.31z M33,32.7v6.69 l-3.91,1.95c2.11-2.7,2.1-6.24,1.98-7.76l2.01-1L33,32.7z M39,37.69V34h-2v5.22l-2,0.5V33.3l2-3v-4.96l3-4.01v-3.16 c0.89,1.53,2,5.01,2,12.83C42,31.04,41.96,34.42,39,37.69z M28.55,36.17l-1.1,1.66L25,36.2l-2.45,1.63l-1.1-1.66L25,33.8 L28.55,36.17z"/></svg>