<svg id="Layer_1" enable-background="new 0 0 512 512" height="512" viewBox="0 0 512 512" width="512" xmlns="http://www.w3.org/2000/svg"><g><path d="m499.477 327.55c-.277-36.35-3.223-70.115-18.689-80.74-10.27-7.06-23.16-13.328-38.314-18.633-3.907-1.369-8.188.691-9.557 4.602-1.368 3.909.691 8.188 4.602 9.557 13.898 4.865 25.599 10.529 34.774 16.837 1.56 1.073 4.849 4.577 7.599 15.74l-55.059 3.219c-20.434 1.195-39.017 13.207-48.497 31.349l-9.418 18.021h-36.83c-3.955-3.608-12.505-11.182-23.787-19.887-31.211-24.082-70.238-37.344-109.892-37.344h-168.16c1.843-28.772 6.829-51.582 11.514-67.506 5.762 17.858 17.101 32.092 33.605 41.891 22.462 13.338 47.287 14.374 54.36 14.374 69.765 0 89.785-56.468 98.335-80.679.384-1.021 3.263-8.823 4.838-17.608.28-1.561.49-3.056.656-4.509 2.79 2.9 5.693 6.133 8.706 9.519l-8.058 10.895c-3.574 4.831-5.053 10.766-4.163 16.71.89 5.943 4.041 11.186 8.873 14.759 3.915 2.896 8.552 4.416 13.333 4.416 1.12 0 2.249-.084 3.378-.253 5.943-.89 11.185-4.04 14.76-8.872l4.039-5.461c1.194.95 2.387 1.871 3.581 2.758l-2.294 3.974c-3.005 5.205-3.804 11.269-2.248 17.074s5.278 10.657 10.482 13.662c3.535 2.041 7.397 3.011 11.213 3.01 7.781 0 15.36-4.035 19.523-11.245l4.329-7.498c2.27.481 4.561.89 6.871 1.214l-3.212 9.666c-1.896 5.703-1.456 11.803 1.236 17.176 2.692 5.374 7.316 9.376 13.02 11.271 2.332.775 4.73 1.16 7.118 1.16 3.452 0 6.882-.805 10.058-2.396 5.374-2.693 9.377-7.317 11.271-13.021l6.026-18.13c14.112 2.128 26.638 4.479 38.13 7.155.572.133 1.144.197 1.707.197 3.408 0 6.492-2.34 7.298-5.802.939-4.034-1.57-8.065-5.604-9.005-11.282-2.626-23.514-4.942-37.14-7.043.593-4.43-.144-8.933-2.191-13.017-2.692-5.374-7.316-9.376-13.019-11.271-11.772-3.915-24.535 2.48-28.449 14.256l-1.429 4.3c-.021-.002-.043-.005-.064-.007-1.227-.132-2.451-.297-3.672-.482l2.716-4.705c6.202-10.744 2.508-24.531-8.236-30.735-10.745-6.206-24.533-2.508-30.734 8.236l-5.147 8.915c-.738-.565-1.476-1.139-2.216-1.733l4.875-6.592c3.574-4.831 5.053-10.766 4.163-16.71s-4.04-11.186-8.872-14.759c-4.832-3.574-10.773-5.054-16.71-4.163-5.944.89-11.186 4.04-14.759 8.872l-.671.907c-9.149-10.207-17.633-18.989-26.997-22.843-.012-.005-.023-.01-.035-.014-3.243-1.33-6.592-2.076-10.112-2.076-16.311 0-22.065 16.322-28.158 33.604l-1.032 2.921c-1.386 3.903.654 8.191 4.558 9.577.83.295 1.677.435 2.51.435 3.085 0 5.976-1.919 7.067-4.992l1.044-2.953c5.174-14.679 8.7-23.591 14.011-23.591 1.168 0 2.368.228 3.599.645 2.322 2.703 1.135 15.942-3.815 28.949-.023.061-.045.12-.066.181-8.111 22.966-24.988 70.754-84.22 70.754-6.107 0-27.525-.885-46.702-12.271-18.546-11.011-28.756-28.426-30.421-51.81 3.338-.128 7.621-.166 12.268.113.043.138.086.274.127.408 4.149 13.281 15.17 48.562 64.73 48.562 24.532 0 42.615-9.271 55.283-28.342 2.292-3.45 1.353-8.104-2.098-10.396-3.45-2.291-8.104-1.353-10.397 2.098-9.807 14.764-23.403 21.641-42.788 21.641-38.531 0-46.556-25.689-50.413-38.034-1.248-3.996-2.001-6.407-3.935-8.34-1.218-1.218-2.818-1.979-4.531-2.156-13.996-1.446-26.347-.051-26.866.01-2.468.287-4.635 1.777-5.785 3.98-.916 1.756-22.448 43.846-23.646 117.785-.067 4.142 3.236 7.553 7.377 7.62.042.001.083.001.124.001 4.085 0 7.43-3.278 7.497-7.379.012-.758.036-1.497.053-2.248h168.803c36.356 0 72.129 12.152 100.729 34.22 3.657 2.822 7.019 5.527 10.024 8.011h-278.192c-.246-2.875-.461-5.746-.645-8.587-.266-4.134-3.832-7.277-7.967-7.002-4.133.267-7.269 3.833-7.002 7.967.163 2.523.353 5.07.563 7.622h-.419c-7.444-.006-13.5 6.05-13.5 13.494v29c0 7.444 6.056 13.5 13.5 13.5h485c7.444 0 13.5-6.056 13.5-13.5v-29c0-7.115-5.535-12.947-12.523-13.45zm-151.356-125.07c1.059-.53 2.202-.799 3.353-.799.796 0 1.596.128 2.373.387 1.901.632 3.442 1.966 4.34 3.757s1.044 3.824.412 5.726l-9.462 28.469c-.632 1.901-1.966 3.443-3.757 4.341s-3.824 1.044-5.725.411c-.001 0-.001 0-.001 0-1.901-.632-3.442-1.966-4.34-3.757s-1.044-3.824-.412-5.726l6.166-18.554c.006-.02.014-.04.02-.061l3.275-9.853c.632-1.901 1.967-3.443 3.758-4.341zm-39.913-20.033c1.271 0 2.56.323 3.736 1.003 3.582 2.068 4.813 6.665 2.746 10.246l-15 25.979c-2.067 3.583-6.667 4.815-10.244 2.746-.001 0-.001 0-.001 0-1.735-1.002-2.977-2.619-3.495-4.555-.518-1.935-.252-3.955.75-5.69l15-25.981c1.388-2.403 3.914-3.748 6.508-3.748zm-41.185-23.958c.377-.057.753-.085 1.126-.085 1.594 0 3.14.507 4.444 1.473 1.61 1.19 2.661 2.938 2.957 4.919.297 1.981-.195 3.96-1.388 5.57l-17.839 24.119c-1.191 1.61-2.939 2.661-4.92 2.957-1.983.298-3.959-.196-5.569-1.387-1.611-1.192-2.661-2.939-2.958-4.921-.296-1.98.196-3.959 1.388-5.569l17.84-24.119c1.191-1.61 2.938-2.661 4.919-2.957zm122.608 157.938c7.052-13.496 20.876-22.433 36.077-23.321l56.78-3.32c1.481 12.171 1.902 25.473 1.991 37.714h-100.635zm107.369 52.073h-15v-10.5c0-4.143-3.357-7.5-7.5-7.5s-7.5 3.357-7.5 7.5v10.5h-39.625v-10.5c0-4.143-3.357-7.5-7.5-7.5s-7.5 3.357-7.5 7.5v10.5h-39.625v-10.5c0-4.143-3.357-7.5-7.5-7.5s-7.5 3.357-7.5 7.5v10.5h-39.625v-10.5c0-4.143-3.357-7.5-7.5-7.5s-7.5 3.357-7.5 7.5v10.5h-39.625v-10.5c0-4.143-3.357-7.5-7.5-7.5-4.142 0-7.5 3.357-7.5 7.5v10.5h-39.625v-10.5c0-4.143-3.358-7.5-7.5-7.5s-7.5 3.357-7.5 7.5v10.5h-39.625v-10.5c0-4.143-3.358-7.5-7.5-7.5s-7.5 3.357-7.5 7.5v10.5h-39.625v-10.5c0-4.143-3.358-7.5-7.5-7.5s-7.5 3.357-7.5 7.5v10.5h-39.625v-10.5c0-4.143-3.358-7.5-7.5-7.5s-7.5 3.357-7.5 7.5v10.5h-15v-26h482z"/></g></svg>