<?xml version="1.0"?><svg fill="#000000" xmlns="http://www.w3.org/2000/svg" viewBox="0 0 50 50" width="250px" height="250px">    <path d="M 9 4 C 6.2504839 4 4 6.2504839 4 9 L 4 41 C 4 43.749516 6.2504839 46 9 46 L 41 46 C 43.749516 46 46 43.749516 46 41 L 46 9 C 46 6.2504839 43.749516 4 41 4 L 9 4 z M 9 6 L 41 6 C 42.668484 6 44 7.3315161 44 9 L 44 41 C 44 42.668484 42.668484 44 41 44 L 9 44 C 7.3315161 44 6 42.668484 6 41 L 6 9 C 6 7.3315161 7.3315161 6 9 6 z M 25 9 C 18.81 9 13.196 11.548594 9 15.683594 L 14.761719 23 L 35.238281 23 L 41 15.683594 C 36.804 11.548594 31.19 9 25 9 z M 24 11.044922 L 24 14 L 26 14 L 26 11.044922 C 28.217356 11.154878 30.38343 11.623606 32.435547 12.433594 L 31.582031 14.492188 L 33.431641 15.257812 L 34.259766 13.259766 C 35.674759 13.983437 37.026687 14.858668 38.277344 15.908203 L 34.267578 21 L 26.25 21 L 28 14 L 22.75 21 L 15.732422 21 L 11.722656 15.908203 C 12.973313 14.858668 14.325241 13.983437 15.740234 13.259766 L 16.568359 15.259766 L 18.417969 14.494141 L 17.564453 12.433594 C 19.61657 11.623606 21.782644 11.154878 24 11.044922 z"/></svg>